<svg width="139" height="26" viewBox="0 0 139 26" fill="none" xmlns="http://www.w3.org/2000/svg">
<path d="M4.841 9.391L12.365 22.855L19.889 9.391L21.605 25H24.41L21.605 0.745L12.365 17.476L3.125 0.745L0.32 25H3.125L4.841 9.391ZM28.1908 3.55C28.1908 4.034 28.3668 4.463 28.7188 4.837C29.0928 5.189 29.5218 5.365 30.0058 5.365C30.5118 5.365 30.9408 5.189 31.2928 4.837C31.6448 4.463 31.8208 4.034 31.8208 3.55C31.8208 3.044 31.6448 2.615 31.2928 2.263C30.9408 1.911 30.5118 1.735 30.0058 1.735C29.5218 1.735 29.0928 1.911 28.7188 2.263C28.3668 2.615 28.1908 3.044 28.1908 3.55ZM28.6858 9.82V25H31.3258V9.82H28.6858ZM46.4981 15.76V25H49.1381V15.43C49.1381 14.198 48.9181 13.142 48.4781 12.262C48.0601 11.382 47.4661 10.7 46.6961 10.216C45.9261 9.732 45.0021 9.49 43.9241 9.49C42.9341 9.49 42.0541 9.71 41.2841 10.15C40.5361 10.59 39.9091 11.272 39.4031 12.196V9.82H36.7631V25H39.4031V15.76C39.4031 15.012 39.5571 14.352 39.8651 13.78C40.1951 13.208 40.6461 12.768 41.2181 12.46C41.8121 12.13 42.4941 11.965 43.2641 11.965C43.9681 11.965 44.5621 12.108 45.0461 12.394C45.5301 12.68 45.8931 13.109 46.1351 13.681C46.3771 14.231 46.4981 14.924 46.4981 15.76ZM54.101 3.55C54.101 4.034 54.277 4.463 54.629 4.837C55.003 5.189 55.432 5.365 55.916 5.365C56.422 5.365 56.851 5.189 57.203 4.837C57.555 4.463 57.731 4.034 57.731 3.55C57.731 3.044 57.555 2.615 57.203 2.263C56.851 1.911 56.422 1.735 55.916 1.735C55.432 1.735 55.003 1.911 54.629 2.263C54.277 2.615 54.101 3.044 54.101 3.55ZM54.596 9.82V25H57.236V9.82H54.596ZM63.6962 18.004L61.4522 19.522C61.9582 20.534 62.6072 21.491 63.3992 22.393C64.2132 23.273 65.1482 23.988 66.2042 24.538C67.2822 25.066 68.4482 25.33 69.7022 25.33C70.6262 25.33 71.5062 25.176 72.3422 24.868C73.2002 24.56 73.9592 24.12 74.6192 23.548C75.3012 22.976 75.8292 22.283 76.2032 21.469C76.5992 20.655 76.7972 19.742 76.7972 18.73C76.7972 17.674 76.6102 16.772 76.2362 16.024C75.8622 15.254 75.3782 14.605 74.7842 14.077C74.2122 13.527 73.5852 13.076 72.9032 12.724C72.2212 12.372 71.5722 12.086 70.9562 11.866C69.9442 11.514 69.0862 11.162 68.3822 10.81C67.7002 10.458 67.1502 10.095 66.7322 9.721C66.3362 9.347 66.0502 8.951 65.8742 8.533C65.6982 8.115 65.6102 7.664 65.6102 7.18C65.6102 6.674 65.7312 6.201 65.9732 5.761C66.2372 5.321 66.6332 4.958 67.1612 4.672C67.6892 4.386 68.3712 4.243 69.2072 4.243C70.1092 4.243 70.8682 4.419 71.4842 4.771C72.1222 5.123 72.6612 5.574 73.1012 6.124C73.5412 6.674 73.9042 7.235 74.1902 7.807L76.5992 6.421C76.2252 5.607 75.7082 4.837 75.0482 4.111C74.3882 3.363 73.5852 2.758 72.6392 2.296C71.7152 1.812 70.6262 1.57 69.3722 1.57C68.0742 1.57 66.9192 1.834 65.9072 2.362C64.8952 2.868 64.1032 3.572 63.5312 4.474C62.9592 5.376 62.6732 6.399 62.6732 7.543C62.6732 8.599 62.8712 9.49 63.2672 10.216C63.6852 10.942 64.2132 11.558 64.8512 12.064C65.4892 12.548 66.1602 12.955 66.8642 13.285C67.5682 13.593 68.2062 13.846 68.7782 14.044C69.6582 14.352 70.4832 14.704 71.2532 15.1C72.0452 15.474 72.6832 15.969 73.1672 16.585C73.6512 17.201 73.8932 18.026 73.8932 19.06C73.8932 19.764 73.7172 20.391 73.3652 20.941C73.0352 21.491 72.5622 21.92 71.9462 22.228C71.3522 22.536 70.6372 22.69 69.8012 22.69C68.8772 22.69 68.0522 22.492 67.3262 22.096C66.6002 21.7 65.9402 21.15 65.3462 20.446C64.7742 19.742 64.2242 18.928 63.6962 18.004ZM78.4423 9.82V12.295H86.0323V9.82H78.4423ZM80.9173 4.54V25H83.5573V4.54H80.9173ZM87.3601 17.41C87.3601 18.928 87.7011 20.292 88.3831 21.502C89.0871 22.69 90.0331 23.625 91.2211 24.307C92.4091 24.989 93.7401 25.33 95.2141 25.33C96.7101 25.33 98.0411 24.989 99.2071 24.307C100.395 23.625 101.33 22.69 102.012 21.502C102.716 20.292 103.068 18.928 103.068 17.41C103.068 15.87 102.716 14.506 102.012 13.318C101.33 12.13 100.395 11.195 99.2071 10.513C98.0411 9.831 96.7101 9.49 95.2141 9.49C93.7401 9.49 92.4091 9.831 91.2211 10.513C90.0331 11.195 89.0871 12.13 88.3831 13.318C87.7011 14.506 87.3601 15.87 87.3601 17.41ZM90.0331 17.41C90.0331 16.354 90.2531 15.419 90.6931 14.605C91.1551 13.769 91.7711 13.12 92.5411 12.658C93.3331 12.196 94.2241 11.965 95.2141 11.965C96.2041 11.965 97.0841 12.196 97.8541 12.658C98.6461 13.12 99.2621 13.769 99.7021 14.605C100.164 15.419 100.395 16.354 100.395 17.41C100.395 18.466 100.164 19.401 99.7021 20.215C99.2621 21.029 98.6461 21.678 97.8541 22.162C97.0841 22.624 96.2041 22.855 95.2141 22.855C94.2241 22.855 93.3331 22.624 92.5411 22.162C91.7711 21.678 91.1551 21.029 90.6931 20.215C90.2531 19.401 90.0331 18.466 90.0331 17.41ZM109.335 9.82H106.695V25H109.335V9.82ZM113.922 12.724L115.374 10.546C114.978 10.128 114.538 9.853 114.054 9.721C113.592 9.567 113.086 9.49 112.536 9.49C111.832 9.49 111.139 9.765 110.457 10.315C109.775 10.865 109.214 11.613 108.774 12.559C108.356 13.483 108.147 14.55 108.147 15.76H109.335C109.335 15.034 109.401 14.385 109.533 13.813C109.687 13.241 109.951 12.79 110.325 12.46C110.699 12.13 111.216 11.965 111.876 11.965C112.316 11.965 112.679 12.031 112.965 12.163C113.251 12.273 113.57 12.46 113.922 12.724ZM123.397 25.33C125.025 25.33 126.433 25.011 127.621 24.373C128.831 23.713 129.832 22.745 130.624 21.469L128.479 20.116C127.929 21.04 127.258 21.733 126.466 22.195C125.674 22.635 124.761 22.855 123.727 22.855C122.693 22.855 121.813 22.635 121.087 22.195C120.361 21.755 119.811 21.117 119.437 20.281C119.063 19.445 118.876 18.433 118.876 17.245C118.876 16.387 118.986 15.617 119.206 14.935C119.426 14.253 119.745 13.681 120.163 13.219C120.581 12.757 121.087 12.405 121.681 12.163C122.297 11.921 122.979 11.8 123.727 11.8C124.585 11.8 125.333 11.987 125.971 12.361C126.609 12.735 127.104 13.252 127.456 13.912C127.83 14.572 128.017 15.353 128.017 16.255C128.017 16.409 127.984 16.607 127.918 16.849C127.852 17.069 127.786 17.234 127.72 17.344L128.776 15.826H117.886V18.07H130.855C130.855 18.026 130.855 17.927 130.855 17.773C130.877 17.597 130.888 17.432 130.888 17.278C130.888 15.672 130.602 14.286 130.03 13.12C129.458 11.954 128.633 11.063 127.555 10.447C126.499 9.809 125.223 9.49 123.727 9.49C122.605 9.49 121.582 9.688 120.658 10.084C119.734 10.458 118.942 10.997 118.282 11.701C117.622 12.383 117.105 13.208 116.731 14.176C116.379 15.144 116.203 16.222 116.203 17.41C116.203 18.972 116.5 20.347 117.094 21.535C117.71 22.723 118.557 23.658 119.635 24.34C120.735 25 121.989 25.33 123.397 25.33Z" fill="#272727"/>
<path d="M135.166 23.68C135.166 24.164 135.342 24.593 135.694 24.967C136.068 25.319 136.497 25.495 136.981 25.495C137.487 25.495 137.916 25.319 138.268 24.967C138.62 24.593 138.796 24.164 138.796 23.68C138.796 23.174 138.62 22.745 138.268 22.393C137.916 22.041 137.487 21.865 136.981 21.865C136.497 21.865 136.068 22.041 135.694 22.393C135.342 22.745 135.166 23.174 135.166 23.68Z" fill="#72AEC8"/>
</svg>
